<svg width="25" height="25" viewBox="0 0 25 25" fill="none" xmlns="http://www.w3.org/2000/svg">
<g id="cutlery_105179 1" clip-path="url(#clip0_176_1297)">
<g id="Food">
<g id="Group">
<path id="Vector" fill-rule="evenodd" clip-rule="evenodd" d="M8.59375 0C7.99414 0 7.44629 0.226562 7.03125 0.598242C6.61621 0.226562 6.06836 0 5.46875 0C4.86914 0 4.32129 0.226562 3.90625 0.598242C3.49121 0.226562 2.94336 0 2.34375 0C1.05137 0 0 1.05137 0 2.34375V8.59375C0 10.4797 0.992969 11.473 1.79141 12.2711C2.53672 13.0166 3.125 13.6047 3.125 14.8438V22.6562C3.125 23.9486 4.17637 25 5.46875 25C6.76113 25 7.8125 23.9486 7.8125 22.6562V14.8438C7.8125 13.6047 8.40078 13.0166 9.14609 12.2711C9.94414 11.473 10.9375 10.4797 10.9375 8.59375V2.34375C10.9375 1.05137 9.88613 0 8.59375 0ZM9.375 8.59375C9.375 9.83281 8.78672 10.4209 8.04141 11.1664C7.24336 11.9645 6.25 12.9578 6.25 14.8438V22.6562C6.25 23.0881 5.90059 23.4375 5.46875 23.4375C5.03691 23.4375 4.6875 23.0881 4.6875 22.6562V14.8438C4.6875 12.9578 3.69414 11.9645 2.89609 11.1664C2.15078 10.4209 1.5625 9.83281 1.5625 8.59375V2.34375C1.5625 1.91191 1.91191 1.5625 2.34375 1.5625C2.77559 1.5625 3.125 1.91191 3.125 2.34375V7.03125C3.125 7.46309 3.47441 7.8125 3.90625 7.8125C4.33809 7.8125 4.6875 7.46309 4.6875 7.03125V2.34375C4.6875 1.91191 5.03691 1.5625 5.46875 1.5625C5.90059 1.5625 6.25 1.91191 6.25 2.34375V7.03125C6.25 7.46309 6.59941 7.8125 7.03125 7.8125C7.46309 7.8125 7.8125 7.46309 7.8125 7.03125V2.34375C7.8125 1.91191 8.16191 1.5625 8.59375 1.5625C9.02559 1.5625 9.375 1.91191 9.375 2.34375V8.59375ZM23.2086 12.7289C22.4633 11.9834 21.875 11.3953 21.875 10.1562V2.34375C21.875 1.05137 20.8236 0 19.5312 0C18.2389 0 17.1875 1.05137 17.1875 2.34375V10.1562C17.1875 11.3953 16.5992 11.9834 15.8539 12.7289C15.0559 13.527 14.0625 14.5203 14.0625 16.4062C14.0625 16.7572 14.1242 25 19.5312 25C24.9383 25 25 16.7572 25 16.4062C25 14.5203 24.0066 13.527 23.2086 12.7289ZM19.5312 23.4375C15.6814 23.4375 15.625 16.4826 15.625 16.4062C15.625 15.1672 16.2133 14.5791 16.9586 13.8336C17.7566 13.0355 18.75 12.0422 18.75 10.1562V2.34375C18.75 1.91191 19.0994 1.5625 19.5312 1.5625C19.9631 1.5625 20.3125 1.91191 20.3125 2.34375V10.1562C20.3125 12.0422 21.3059 13.0355 22.1039 13.8336C22.8492 14.5791 23.4375 15.1672 23.4375 16.4062C23.4375 16.4764 23.3926 23.4375 19.5312 23.4375Z" fill="#202020"/>
</g>
</g>
</g>
<defs>
<clipPath id="clip0_176_1297">
<rect width="25" height="25" fill="white"/>
</clipPath>
</defs>
</svg>
