<svg width="25" height="25" viewBox="0 0 25 25" fill="none" xmlns="http://www.w3.org/2000/svg">
<g id="fit_zoom_icon_217297 1" clip-path="url(#clip0_176_1308)">
<path id="Vector" d="M16.7562 15.625C18.0451 14.0944 18.7513 12.1573 18.75 10.1563C18.75 8.45657 18.246 6.79506 17.3017 5.38182C16.3574 3.96859 15.0152 2.8671 13.4449 2.21666C11.8746 1.56622 10.1467 1.39604 8.4797 1.72763C6.81267 2.05922 5.28141 2.8777 4.07956 4.07956C2.8777 5.28141 2.05922 6.81267 1.72763 8.4797C1.39604 10.1467 1.56622 11.8746 2.21666 13.4449C2.8671 15.0152 3.96859 16.3574 5.38182 17.3017C6.79506 18.246 8.45657 18.75 10.1563 18.75C12.1573 18.7513 14.0944 18.0451 15.625 16.7562L21.5515 22.6563L22.6563 21.5515L16.7562 15.625ZM10.1563 17.1875C8.7656 17.1875 7.40618 16.7751 6.2499 16.0025C5.09362 15.2299 4.1924 14.1318 3.66023 12.847C3.12805 11.5622 2.98881 10.1485 3.26011 8.78452C3.53141 7.4206 4.20107 6.16775 5.18441 5.18441C6.16775 4.20107 7.4206 3.53141 8.78452 3.26011C10.1485 2.98881 11.5622 3.12805 12.847 3.66023C14.1318 4.1924 15.2299 5.09362 16.0025 6.2499C16.7751 7.40618 17.1875 8.7656 17.1875 10.1563C17.1854 12.0204 16.444 13.8076 15.1258 15.1258C13.8076 16.444 12.0204 17.1854 10.1563 17.1875Z" fill="black"/>
<path id="Vector_2" d="M7.8125 9.375H6.25V7.8125C6.25048 7.39825 6.41525 7.00109 6.70817 6.70817C7.00109 6.41525 7.39825 6.25048 7.8125 6.25H9.375V7.8125H7.8125V9.375Z" fill="black"/>
<path id="Vector_3" d="M14.0625 9.375H12.5V7.8125H10.9375V6.25H12.5C12.9143 6.25048 13.3114 6.41525 13.6043 6.70817C13.8973 7.00109 14.062 7.39825 14.0625 7.8125V9.375Z" fill="black"/>
<path id="Vector_4" d="M9.375 14.0625H7.8125C7.39825 14.062 7.00109 13.8973 6.70817 13.6043C6.41525 13.3114 6.25048 12.9143 6.25 12.5V10.9375H7.8125V12.5H9.375V14.0625Z" fill="black"/>
<path id="Vector_5" d="M12.5 14.0625H10.9375V12.5H12.5V10.9375H14.0625V12.5C14.062 12.9143 13.8973 13.3114 13.6043 13.6043C13.3114 13.8973 12.9143 14.062 12.5 14.0625Z" fill="black"/>
</g>
<defs>
<clipPath id="clip0_176_1308">
<rect width="25" height="25" fill="white"/>
</clipPath>
</defs>
</svg>
