<svg width="25" height="24" viewBox="0 0 25 24" fill="none" xmlns="http://www.w3.org/2000/svg">
<g id="ic-calender_97644 1" clip-path="url(#clip0_176_1365)">
<g id="Icons">
<g id="24-px-Icons">
<g id="ic_calender">
<g id="Group">
<g id="Group_2">
<path id="Rectangle-3" d="M23.75 5.05176H1.25V22.736H23.75V5.05176Z" stroke="#202020" stroke-width="2" stroke-linecap="round" stroke-linejoin="round"/>
<path id="Line" d="M7.5 7.57849V1.2627" stroke="#202020" stroke-width="2" stroke-linecap="round" stroke-linejoin="round"/>
<path id="Line-Copy" d="M17.5 7.57849V1.2627" stroke="#202020" stroke-width="2" stroke-linecap="round" stroke-linejoin="round"/>
<path id="Oval-2" d="M7.5 13.8945C8.19036 13.8945 8.75 13.3289 8.75 12.6313C8.75 11.9337 8.19036 11.3682 7.5 11.3682C6.80964 11.3682 6.25 11.9337 6.25 12.6313C6.25 13.3289 6.80964 13.8945 7.5 13.8945Z" fill="#202020"/>
<path id="Oval-2-Copy-3" d="M7.5 18.9472C8.19036 18.9472 8.75 18.3817 8.75 17.6841C8.75 16.9864 8.19036 16.4209 7.5 16.4209C6.80964 16.4209 6.25 16.9864 6.25 17.6841C6.25 18.3817 6.80964 18.9472 7.5 18.9472Z" fill="#202020"/>
<path id="Oval-2-Copy" d="M12.5 13.8945C13.1904 13.8945 13.75 13.3289 13.75 12.6313C13.75 11.9337 13.1904 11.3682 12.5 11.3682C11.8096 11.3682 11.25 11.9337 11.25 12.6313C11.25 13.3289 11.8096 13.8945 12.5 13.8945Z" fill="#202020"/>
<path id="Oval-2-Copy-4" d="M12.5 18.9472C13.1904 18.9472 13.75 18.3817 13.75 17.6841C13.75 16.9864 13.1904 16.4209 12.5 16.4209C11.8096 16.4209 11.25 16.9864 11.25 17.6841C11.25 18.3817 11.8096 18.9472 12.5 18.9472Z" fill="#202020"/>
<path id="Oval-2-Copy-2" d="M17.5 13.8945C18.1904 13.8945 18.75 13.3289 18.75 12.6313C18.75 11.9337 18.1904 11.3682 17.5 11.3682C16.8096 11.3682 16.25 11.9337 16.25 12.6313C16.25 13.3289 16.8096 13.8945 17.5 13.8945Z" fill="#202020"/>
<path id="Oval-2-Copy-5" d="M17.5 18.9472C18.1904 18.9472 18.75 18.3817 18.75 17.6841C18.75 16.9864 18.1904 16.4209 17.5 16.4209C16.8096 16.4209 16.25 16.9864 16.25 17.6841C16.25 18.3817 16.8096 18.9472 17.5 18.9472Z" fill="#202020"/>
</g>
</g>
</g>
</g>
</g>
</g>
<defs>
<clipPath id="clip0_176_1365">
<rect width="25" height="24" fill="white"/>
</clipPath>
</defs>
</svg>
