<svg width="54" height="51" viewBox="0 0 54 51" fill="none" xmlns="http://www.w3.org/2000/svg">
<g id="Group">
<path id="Vector" d="M9.53885 14.8506C9.31562 14.5955 9.70747 14.3317 9.98053 14.5506C10.5 14.9671 15.7012 19.3704 16.5198 20.077C17.3383 20.7836 17.739 20.9204 18.193 20.5564C18.6469 20.1924 18.0325 19.569 17.7342 19.2779C17.4359 18.9867 11.4769 13.1653 11.1834 12.8829C10.7949 12.5091 10.7123 12.3755 10.8973 12.2267C11.0823 12.0783 11.2489 12.1446 11.7152 12.456C12.0681 12.6914 19.3289 17.4695 19.6914 17.7081C20.0546 17.9473 20.8321 18.4399 21.2861 18.0754C21.7401 17.7114 21.5694 17.3901 20.6881 16.7339C19.8068 16.0777 14.3148 11.9076 13.7953 11.4905C13.5222 11.2716 13.8512 10.9574 14.1693 11.1364C14.6363 11.3986 23.3648 16.0136 24.4236 16.9545C26.5126 18.8115 24.412 21.2039 26.159 23.0593C25.6033 23.4463 24.9691 23.8896 24.2673 24.38C21.9742 23.1283 19.064 24.7112 16.7949 23.0708C15.6214 22.223 9.86584 15.2244 9.53885 14.8506ZM41.2424 33.5702C40.0293 32.7344 34.2376 28.7346 30.3485 26.0483C29.7675 26.5847 29.0664 27.23 28.2793 27.9535C31.6271 31.0695 36.4911 35.5964 37.5192 36.5559C39.1193 38.049 41.295 40.3691 43.6467 38.483C45.9978 36.5969 43.104 34.8531 41.2424 33.5702ZM43.0555 18.0218C44.483 15.8007 45.0428 13.3323 43.6549 12.2196C42.2671 11.1068 39.1883 11.5562 36.418 12.7001C33.6594 13.8396 31.7479 15.5101 31.4093 17.2779C30.8707 20.0896 31.3595 21.2652 29.459 22.4852C28.394 23.1688 13.5891 33.5943 11.7439 34.8854C9.91636 36.1645 9.56479 37.3933 10.8735 38.4715L10.8714 38.4726C10.8776 38.4775 10.8844 38.4819 10.8912 38.4868C10.8973 38.4917 10.9028 38.4972 10.909 38.5021L10.9103 38.5005C12.2552 39.5503 13.7877 39.2678 15.3831 37.8027C16.9935 36.3238 29.9976 24.4534 30.8495 23.6001C32.3712 22.0763 33.8375 22.4682 37.3444 22.0364C39.5508 21.7655 41.6342 20.2335 43.0555 18.0218ZM9.60643 34.881L7.77826 34.0349V16.2391L8.53465 15.8888C8.39402 15.7197 8.29777 15.6053 8.26432 15.5665C8.20629 15.5002 8.17216 15.4269 8.12846 15.3563L7.00002 15.8784V34.3945L9.16065 35.3944C9.28831 35.2226 9.43986 35.0518 9.60643 34.881ZM27 0.140625L0 12.6388V37.6346L27 50.1328L54 37.6346V12.6388L27 0.140625ZM53.2211 37.2745L27 49.412L0.778235 37.2745V12.9989L27 0.861454L53.2211 12.9989V37.2745ZM17.8114 11.5951L27.0007 7.34124L35.9634 11.49C36.2528 11.375 36.5416 11.2689 36.8297 11.1703L27.0007 6.62041L17.0932 11.2065C17.3376 11.3389 17.5779 11.4686 17.8114 11.5951ZM45.6824 15.9895L46.2217 16.2391V34.0349L44.9021 34.6457C45.066 34.8104 45.2189 34.9801 45.3568 35.1558L47 34.3956V15.8795L45.8538 15.3492C45.8074 15.5615 45.75 15.7755 45.6824 15.9895ZM37.2263 38.1989L27.0007 42.9322L16.9389 38.275C16.7778 38.4222 16.6488 38.5404 16.5573 38.6242C16.5082 38.6691 16.459 38.7074 16.4099 38.7506L27 43.6525L37.7622 38.6707C37.5779 38.5153 37.399 38.3571 37.2263 38.1989Z" fill="url(#paint0_linear_527_833)"/>
</g>
<defs>
<linearGradient id="paint0_linear_527_833" x1="3.78503" y1="47.4213" x2="40.1379" y2="-6.86544" gradientUnits="userSpaceOnUse">
<stop stop-color="#BE965D"/>
<stop offset="0.2784" stop-color="#976F40"/>
<stop offset="0.4259" stop-color="#C99B61"/>
<stop offset="0.5584" stop-color="#F0BE7B"/>
<stop offset="0.6275" stop-color="#FFCB85"/>
<stop offset="0.7085" stop-color="#EEBC79"/>
<stop offset="0.8693" stop-color="#C0935B"/>
<stop offset="1" stop-color="#976F40"/>
</linearGradient>
</defs>
</svg>
